<svg xmlns="http://www.w3.org/2000/svg" viewBox="0 0 32 32">
  <path fill="#00ADD8" d="M2.532 11.278c-.074 0-.112-.056-.084-.126l.378-.756c.028-.07.112-.126.196-.126h6.356c.084 0 .112.07.084.14l-.308.714c-.028.07-.112.14-.168.14l-6.454.014zM.252 12.988c-.074 0-.112-.056-.084-.126l.378-.756c.028-.07.112-.126.196-.126h8.106c.084 0 .126.056.112.126l-.14.686c-.014.084-.098.126-.168.126l-8.4.07zM4.056 14.698c-.074 0-.112-.056-.084-.126l.252-.686c.028-.07.098-.126.168-.126h3.556c.084 0 .126.056.126.14l-.028.658c0 .084-.07.126-.14.14l-3.85-.014v.014z"/>
  <path fill="#00ADD8" d="M18.354 10.746c-1.274.336-2.142.588-3.402.938-.308.084-.322.098-.588-.196-.308-.336-.532-.56-.966-.756-.644-.294-1.26-.21-1.834.168-.686.448-1.036 1.092-.994 1.89.042.784.49 1.428 1.176 1.862.602.378 1.26.434 1.946.28.518-.112.952-.378 1.302-.77.084-.098.168-.21.28-.35h-2.758c-.21 0-.266-.126-.196-.294.126-.308.364-.826.504-1.078.028-.056.112-.154.252-.154h4.508c-.028.308-.028.616-.07.924-.14.84-.434 1.624-.91 2.338-.728 1.092-1.708 1.876-2.94 2.324-1.008.364-2.044.434-3.094.168-1.008-.252-1.834-.784-2.478-1.568-.714-.882-1.036-1.89-.994-3.01.042-1.246.49-2.366 1.316-3.318.938-1.064 2.1-1.722 3.486-1.988 1.176-.224 2.324-.154 3.416.336.896.406 1.596 1.022 2.072 1.862.07.126.042.168-.098.21z"/>
  <path fill="#00ADD8" d="M22.792 21.294c-1.134-.028-2.184-.224-3.136-.77-.784-.448-1.344-1.092-1.624-1.946-.336-1.05-.252-2.072.252-3.052.574-1.12 1.484-1.89 2.66-2.366 1.008-.406 2.058-.504 3.136-.364 1.078.14 2.016.546 2.786 1.288.896.868 1.33 1.932 1.358 3.15.028 1.022-.224 1.974-.756 2.856-.644 1.064-1.554 1.806-2.702 2.254-.644.252-1.316.378-2.002.406-.084 0-.154-.014-.196.014.084.308.084.63.07.952-.014.322-.084.63-.21.924-.112.266-.252.518-.434.742-.21.266-.462.49-.756.658-.308.182-.644.308-.994.378-.378.07-.756.07-1.134.014-.364-.056-.714-.168-1.036-.336-.252-.126-.476-.294-.686-.49-.182-.168-.336-.364-.462-.574-.126-.21-.224-.434-.28-.672-.056-.21-.098-.42-.098-.644 0-.224.014-.448.07-.672.056-.21.126-.406.21-.602.098-.21.21-.406.35-.588.154-.21.322-.392.518-.56.182-.154.378-.294.588-.406.224-.126.462-.224.714-.294.252-.07.504-.126.77-.14.266-.028.532-.014.798.028.252.042.49.112.728.21.224.084.434.196.63.336.168.112.322.252.462.406.126.14.238.294.336.462.084.154.154.322.21.49.042.154.07.308.084.476.014.14.014.28 0 .42-.028.14-.056.28-.098.42-.042.14-.098.266-.154.392-.07.14-.154.266-.252.378-.098.126-.21.238-.336.336-.112.098-.238.182-.364.252-.14.07-.28.126-.434.168-.14.042-.28.07-.434.084-.14.014-.28.014-.42 0-.14-.014-.266-.042-.392-.084-.126-.042-.252-.098-.364-.168-.112-.07-.21-.154-.308-.252-.098-.098-.182-.21-.252-.336-.07-.112-.126-.238-.168-.378-.042-.126-.07-.266-.07-.406-.014-.126 0-.266.028-.392.028-.126.07-.252.126-.364.056-.126.126-.238.21-.336.084-.112.182-.21.294-.294.098-.084.21-.154.336-.21.112-.056.238-.098.364-.126.126-.028.252-.042.378-.042.126 0 .252.014.378.042.112.028.224.07.322.126.098.056.182.112.266.182.07.07.14.14.196.224.056.07.098.154.126.238.028.084.042.168.042.252 0 .098-.014.182-.042.266-.028.084-.07.154-.126.21-.056.07-.112.126-.182.168-.07.042-.14.07-.21.084-.084.014-.154.014-.238 0-.07-.014-.14-.042-.196-.084-.056-.028-.112-.07-.154-.126-.042-.056-.07-.112-.084-.182-.014-.056-.014-.126 0-.182.014-.07.042-.126.084-.168.042-.056.098-.098.154-.126.056-.028.126-.042.196-.042.056 0 .112.014.168.042.042.028.084.056.112.098.028.042.056.084.07.14.014.042.014.098 0 .14-.014.042-.042.084-.084.112-.042.028-.084.042-.14.042s-.098-.014-.14-.042c-.042-.028-.07-.07-.084-.126-.014-.042-.014-.098 0-.14.014-.042.042-.084.084-.112.042-.028.084-.042.14-.042s.098.014.14.042c.042.028.07.07.084.112.014.042.014.098 0 .14-.014.056-.042.098-.084.126-.042.028-.084.056-.14.07-.056.014-.112.014-.168-.014-.056-.014-.098-.042-.14-.084-.042-.042-.07-.098-.084-.154-.014-.07-.014-.14.014-.21.028-.07.07-.126.126-.168.07-.042.14-.07.224-.07.084-.014.168 0 .252.028.07.028.14.07.21.126.056.056.112.126.154.21.042.084.07.168.07.266.014.084 0 .182-.028.266-.028.098-.07.182-.14.252-.056.07-.126.14-.21.196-.084.056-.182.098-.28.126-.112.028-.21.042-.322.028-.112-.014-.21-.042-.308-.084-.098-.042-.182-.098-.266-.168-.07-.07-.14-.14-.196-.224-.056-.084-.098-.182-.126-.28-.028-.098-.042-.21-.028-.322.014-.098.042-.196.084-.28.056-.098.112-.182.182-.252.084-.07.168-.14.266-.182.098-.056.21-.084.322-.098.112-.014.224-.014.336.014.112.028.21.07.308.126.084.056.168.126.238.21.07.084.126.182.168.28.042.112.056.224.056.336 0 .126-.028.238-.07.35-.056.112-.126.21-.21.294-.098.084-.196.154-.308.196-.126.056-.252.084-.378.084-.14.014-.28 0-.406-.042-.14-.042-.266-.098-.378-.182-.126-.084-.238-.182-.322-.294-.098-.126-.168-.266-.21-.42-.056-.154-.07-.322-.056-.49.014-.168.056-.336.126-.49.07-.154.168-.294.28-.42.126-.126.266-.238.42-.322.154-.084.322-.154.504-.182.168-.042.35-.056.532-.042.182.014.35.056.518.126.154.056.294.14.42.252.126.098.238.224.336.364.084.14.154.294.196.462.042.168.056.35.042.532-.014.182-.056.364-.126.532-.07.168-.168.322-.28.462-.126.14-.266.266-.42.364-.168.098-.35.182-.532.238-.182.056-.378.084-.574.084zM23.954 13.702c.014-.028.028-.042.056-.042h.49c.042 0 .056.014.056.056v.238c0 .028-.014.042-.042.056l-.49.154c-.028.014-.056 0-.07-.028l-.014-.378c0-.028.014-.042.014-.056z"/>
</svg>
