<svg xmlns="http://www.w3.org/2000/svg" viewBox="0 0 32 32">
  <path fill="#326CE5" d="M15.9.476a2.14 2.14 0 0 0-.823.218L3.932 6.01c-.582.277-1.005.804-1.15 1.432L.054 19.373a2.16 2.16 0 0 0 .328 1.632l7.27 9.86c.44.56 1.09.873 1.775.873h13.146c.685 0 1.336-.313 1.775-.873l7.27-9.86a2.16 2.16 0 0 0 .328-1.632L29.218 7.442c-.145-.628-.568-1.155-1.15-1.432L16.923.694A2.14 2.14 0 0 0 15.9.476z"/>
  <path fill="#FFF" d="M16 4.504a.86.86 0 0 0-.215.027.794.794 0 0 0-.588.645c-.01.063-.026.126-.024.19l.203 4.333a.52.52 0 0 1-.469.543.52.52 0 0 1-.49-.4l-.924-4.144a.794.794 0 0 0-.588-.645.86.86 0 0 0-.768.2.847.847 0 0 0-.26.725l.32 4.366a.52.52 0 0 1-.296.51.52.52 0 0 1-.584-.09L8.55 7.47a.847.847 0 0 0-.692-.226.86.86 0 0 0-.636.449.794.794 0 0 0 .028.82l2.39 3.538a.52.52 0 0 1-.165.716.52.52 0 0 1-.584.034L5.48 10.5a.794.794 0 0 0-.82.028.86.86 0 0 0-.449.636.847.847 0 0 0 .226.692l3.294 2.767a.52.52 0 0 1 .09.584.52.52 0 0 1-.51.296l-4.366-.32a.847.847 0 0 0-.725.26.86.86 0 0 0-.2.768.794.794 0 0 0 .645.588l4.144.924a.52.52 0 0 1 .4.49.52.52 0 0 1-.543.469l-4.333-.203c-.064-.002-.127.014-.19.024a.794.794 0 0 0-.645.588.86.86 0 0 0 .2.768.847.847 0 0 0 .725.26l4.366-.32a.52.52 0 0 1 .51.296.52.52 0 0 1-.09.584l-3.294 2.767a.847.847 0 0 0-.226.692.86.86 0 0 0 .449.636.794.794 0 0 0 .82.028l3.411-2.301a.52.52 0 0 1 .584.034.52.52 0 0 1 .165.716l-2.39 3.538a.794.794 0 0 0-.028.82.86.86 0 0 0 .636.449.847.847 0 0 0 .692-.226l2.767-3.294a.52.52 0 0 1 .584-.09.52.52 0 0 1 .296.51l-.32 4.366a.847.847 0 0 0 .26.725.86.86 0 0 0 .768.2.794.794 0 0 0 .588-.645l.924-4.144a.52.52 0 0 1 .49-.4.52.52 0 0 1 .469.543l-.203 4.333c-.002.064.014.127.024.19a.794.794 0 0 0 .588.645.86.86 0 0 0 .768-.2.847.847 0 0 0 .26-.725l-.32-4.366a.52.52 0 0 1 .296-.51.52.52 0 0 1 .584.09l2.767 3.294a.847.847 0 0 0 .692.226.86.86 0 0 0 .636-.449.794.794 0 0 0-.028-.82l-2.39-3.538a.52.52 0 0 1 .165-.716.52.52 0 0 1 .584-.034l3.411 2.301a.794.794 0 0 0 .82-.028.86.86 0 0 0 .449-.636.847.847 0 0 0-.226-.692l-3.294-2.767a.52.52 0 0 1-.09-.584.52.52 0 0 1 .51-.296l4.366.32a.847.847 0 0 0 .725-.26.86.86 0 0 0 .2-.768.794.794 0 0 0-.645-.588l-4.144-.924a.52.52 0 0 1-.4-.49.52.52 0 0 1 .543-.469l4.333.203c.063.002.126-.026.19-.024a.794.794 0 0 0 .645-.588.86.86 0 0 0-.2-.768.847.847 0 0 0-.725-.26l-4.366.32a.52.52 0 0 1-.51-.296.52.52 0 0 1 .09-.584l3.294-2.767a.847.847 0 0 0 .226-.692.86.86 0 0 0-.449-.636.794.794 0 0 0-.82-.028l-3.411 2.301a.52.52 0 0 1-.584-.034.52.52 0 0 1-.165-.716l2.39-3.538a.794.794 0 0 0 .028-.82.86.86 0 0 0-.636-.449.847.847 0 0 0-.692.226l-2.767 3.294a.52.52 0 0 1-.584.09.52.52 0 0 1-.296-.51l.32-4.366a.847.847 0 0 0-.26-.725.86.86 0 0 0-.768-.2.794.794 0 0 0-.588.645l-.924 4.144a.52.52 0 0 1-.49.4.52.52 0 0 1-.469-.543l.203-4.333c.002-.064-.014-.127-.024-.19a.794.794 0 0 0-.588-.645.86.86 0 0 0-.215-.027zm0 7.508a4 4 0 0 1 4 4 4 4 0 0 1-4 4 4 4 0 0 1-4-4 4 4 0 0 1 4-4z"/>
</svg>
